# AST/ASF file generated using VICON BodyLanguage
# -----------------------------------------------
:version 1.10
:name VICON
:units
  mass 1.0
  length 0.45
  angle deg
:documentation
   .ast/.asf automatically generated from VICON data using
   VICON BodyBuilder and BodyLanguage model FoxedUp or BRILLIANT.MOD
:root
   order TX TY TZ RX RY RZ
   axis XYZ
   position 0 0 0  
   orientation 0 0 0 
:bonedata
  begin
     id 1 
     name lhipjoint
     direction 0.575328 -0.747301 0.332475 
     length 2.40933 
     axis 0 0 0  XYZ
  end
  begin
     id 2 
     name lfemur
     direction 0.34202 -0.939693 0  
     length 7.31453  
     axis 0 0 20  XYZ
    dof rx ry rz
    limits (-160.0 20.0)
           (-70.0 70.0)
           (-60.0 70.0)
  end
  begin
     id 3 
     name ltibia
     direction 0.34202 -0.939693 0   
     length 7.82185   
     axis 0 0 20   XYZ
    dof rx
    limits (-10.0 170.0)
  end
  begin
     id 4 
     name lfoot
     direction 0.0795993 -0.218697 0.972541   
     length 2.19173   
     axis -90 7.62852e-016 20   XYZ
    dof rx rz
    limits (-45.0 90.0)
           (-70.0 20.0)
  end
  begin
     id 5 
     name ltoes
     direction 1.53537e-011 -4.21894e-011 1   
     length 1.10023   
     axis -90 7.62852e-016 20   XYZ
    dof rx
    limits (-90.0 20.0)
  end
  begin
     id 6 
     name rhipjoint
     direction -0.513884 -0.783789 0.348708   
     length 2.29716  
     axis 0 0 0  XYZ 
  end
  begin
     id 7 
     name rfemur
     direction -0.34202 -0.939693 0   
     length 7.59573   
     axis 0 0 -20   XYZ
    dof rx ry rz
    limits (-160.0 20.0)
           (-70.0 70.0)
           (-70.0 60.0)
  end
  begin
     id 8 
     name rtibia
     direction -0.34202 -0.939693 0   
     length 7.66402   
     axis 0 0 -20   XYZ
    dof rx
    limits (-10.0 170.0)
 end
 begin
     id 9 
     name rfoot
     direction -0.137793 -0.378584 0.915253   
     length 2.27056  
     axis -90 -7.62852e-016 -20   XYZ
    dof rx rz
    limits (-45.0 90.0)
           (-20.0 70.0)
  end
  begin
     id 10 
     name rtoes
     direction -1.53493e-011 -4.22159e-011 1   
     length 1.11766   
     axis -90 -7.62852e-016 -20   XYZ
    dof rx
    limits (-90.0 20.0)
  end
  begin
     id 11 
     name lowerback
     direction -0.00732775 0.998356 -0.05685   
     length 2.16513   
     axis 0 0 0   XYZ
    dof rx ry rz
    limits (-20.0 45.0)
           (-30.0 30.0)
           (-30.0 30.0)
  end
  begin
     id 12 
     name upperback
     direction 0.0218081 0.999627 -0.0164647   
     length 2.16755   
     axis 0 0 0   XYZ
    dof rx ry rz
    limits (-20.0 45.0)
           (-30.0 30.0)
           (-30.0 30.0)
  end
  begin
     id 13 
     name thorax
     direction 0.02365 0.999661 0.0108914   
     length 2.16932   
     axis 0 0 0   XYZ
    dof rx ry rz
    limits (-20.0 45.0)
           (-30.0 30.0)
           (-30.0 30.0)
  end
  begin
     id 14 
     name lowerneck
     direction -0.0523929 0.978385 0.200044   
     length 1.63877   
     axis 0 0 0   XYZ
    dof rx ry rz
    limits (-20.0 45.0)
           (-30.0 30.0)
           (-30.0 30.0)
  end
  begin
     id 15 
     name upperneck
     direction 0.0448674 0.981321 -0.187074   
     length 1.69014   
     axis 0 0 0   XYZ
    dof rx ry rz
    limits (-20.0 45.0)
           (-30.0 30.0)
           (-30.0 30.0)
  end
  begin
     id 16
     name head
     direction 0.0199089 0.996118 -0.0857429  
     length 1.70094  
     axis 0 0 0   XYZ
    dof rx ry rz
    limits (-20.0 45.0)
           (-30.0 30.0)
           (-30.0 30.0)
  end
  begin
     id 17 
     name lclavicle
     direction 0.940366 0.30191 -0.156722  
     length 3.37521  
     axis 0 0 0   XYZ
    dof ry rz
    limits (-20.0 10.0)
           (0.0 20.0)
  end
  begin
     id 18 
     name lhumerus
     direction 1 -4.4897e-011 -1.7911e-027   
     length 5.25287   
     axis 180 -30 -90   XYZ
    dof rx ry rz
    limits (-60.0 90.0)
           (-90.0 90.0)
           (-90.0 90.0)
  end
  begin
     id 19
     name lradius
     direction 1 -4.48951e-011 1.04424e-027   
     length 3.51014   
     axis 180 -30 -90   XYZ
    dof rx
    limits (-10.0 170.0)
  end
  begin
     id 20
     name lwrist
     direction 1 -4.48997e-011 -9.5942e-028   
     length 1.75507   
     axis 8.48502e-016 90 90   XYZ
    dof ry
    limits (-180.0 0.0)
 end
  begin
     id 21 
     name lhand
     direction 1 -4.48831e-011 -1.90777e-027   
     length 0.706179   
     axis 1.22306e-015 90 90   XYZ
    dof rx rz
    limits (-90.0 90.0)
           (-45.0 45.0)
  end
  begin
     id 22 
     name lfingers
     direction 1 -4.49108e-011 -3.85244e-027   
     length 0.569339   
     axis 2.44611e-015 90 90   XYZ
    dof rx
    limits (0.0 90.0)
  end
  begin
     id 23
     name lthumb
     direction 0.707107 -6.34953e-011 0.707107   
     length 0.817461   
     axis -90 45 -1.62303e-014   XYZ
    dof rx rz
    limits (-45.0 45.0)
           (-45.0 45.0)
  end
  begin
     id 24 
     name rclavicle
     direction -0.905329 0.382405 -0.184787   
     length 3.30787  
     axis 0 0 0   XYZ 
    dof ry rz
    limits (-10.0 20.0)
           (-20.0 0.0)
  end
  begin
     id 25 
     name rhumerus
     direction -1 -4.48953e-011 -9.15316e-029  
     length 5.28721   
     axis 180 30 90   XYZ
    dof rx ry rz
    limits (-90.0 60.0)
           (-90.0 90.0)
           (-90.0 90.0)
  end
  begin
     id 26 
     name rradius
     direction -1 -4.48987e-011 9.37824e-028   
     length 3.50544   
     axis 180 30 90   XYZ
    dof rx
    limits (-10.0 170.0)
  end
  begin
     id 27 
     name rwrist
     direction -1 -4.48967e-011 -9.58414e-028   
     length 1.75272   
     axis 8.48502e-016 -90 -90   XYZ
    dof ry
    limits (-180.0 0.0)
  end
  begin
     id 28
     name rhand
     direction -1 -4.48904e-011 -1.91266e-027   
     length 0.884996   
     axis 1.22306e-015 -90 -90   XYZ
    dof rx rz
    limits (-90.0 90.0)
           (-45.0 45.0)
  end
  begin
     id 29
     name rfingers
     direction -1 -4.4909e-011 -3.85015e-027   
     length 0.713507   
     axis 2.44611e-015 -90 -90   XYZ
    dof rx
    limits (0.0 90.0)
  end
  begin
     id 30
     name rthumb
     direction -0.707107 -6.34853e-011 0.707107   
     length 1.02446   
     axis -90 -45 1.62303e-014   XYZ
    dof rx rz
    limits (-45.0 45.0)
           (-45.0 45.0)
  end
:hierarchy
  begin
    root lhipjoint rhipjoint lowerback
    lhipjoint lfemur
    lfemur ltibia
    ltibia lfoot
    lfoot ltoes
    rhipjoint rfemur
    rfemur rtibia
    rtibia rfoot
    rfoot rtoes
    lowerback upperback
    upperback thorax
    thorax lowerneck lclavicle rclavicle
    lowerneck upperneck
    upperneck head
    lclavicle lhumerus
    lhumerus lradius
    lradius lwrist
    lwrist lhand lthumb
    lhand lfingers
    rclavicle rhumerus
    rhumerus rradius
    rradius rwrist
    rwrist rhand rthumb
    rhand rfingers
  end

#!OML:ASF F:\twosubjects\two\Thursday\Session 1\justin.ASF
:FULLY-SPECIFIED
:DEGREES
1
root 3.82267 17.937 14.8646 -172.933 -2.75185 178.482
lowerback -2.80845 -1.35609 -6.66336
upperback -0.552105 -1.63739 1.0084
thorax 1.2217 -0.852971 4.71926
lowerneck -22.6927 -7.08323 -12.1953
upperneck 24.7662 -7.98153 9.53216
head 12.9858 -3.258 4.33332
rclavicle 1.79683e-014 -8.19987e-015
rhumerus -11.949 -8.58577 -69.0579
rradius 27.634
rwrist 8.27147
rhand 6.68943 -2.75772
rfingers 7.12502
rthumb 31.98 -29.9677
lclavicle 1.79683e-014 -8.19987e-015
lhumerus -19.1115 5.89936 79.7246
lradius 27.9039
lwrist -6.66855
lhand -9.42196 38.2461
lfingers 7.12502
lthumb 16.5402 67.5611
rfemur -35.9084 -1.95472 20.0843
rtibia 34.782
rfoot -8.76325 -3.24716
rtoes -4.38702
lfemur 10.763 -1.49887 -21.7407
ltibia 23.8449
lfoot -3.4295 -11.0379
ltoes -34.1776
2
root 3.84312 17.9307 14.6746 -173.043 -2.55434 178.512
lowerback -2.81054 -1.29937 -6.6232
upperback -0.320325 -1.55145 1.00603
thorax 1.45072 -0.821927 4.69512
lowerneck -22.6882 -7.07193 -12.2823
upperneck 24.4246 -7.97361 9.65664
head 12.8559 -3.25673 4.38611
rclavicle -1.85211e-014 -1.23246e-014
rhumerus -13.7005 -10.2047 -68.9394
rradius 25.1061
rwrist 8.40482
rhand 5.22633 -1.46116
rfingers 7.12502
rthumb 30.5858 -28.9407
lclavicle -1.85211e-014 -1.23246e-014
lhumerus -19.9203 7.64058 79.409
lradius 26.2989
lwrist -7.89312
lhand -9.23157 38.6868
lfingers 7.12502
lthumb 16.7235 67.9865
rfemur -35.3852 -1.56357 20.1518
rtibia 35.3641
rfoot -9.11999 -2.85333
rtoes -4.80184
lfemur 9.77918 -1.22645 -21.5929
ltibia 26.2572
lfoot -1.28235 -11.7311
ltoes -34.6063
3
root 3.86308 17.9297 14.4901 -173.056 -2.48745 178.492
lowerback -2.7646 -1.20961 -6.62767
upperback -0.249212 -1.43128 0.965243
thorax 1.48193 -0.764283 4.66089
lowerneck -22.2711 -7.0617 -12.2113
upperneck 23.8538 -8.0219 9.66019
head 12.5471 -3.29126 4.35088
rclavicle 4.62174e-015 -1.70955e-014
rhumerus -15.8109 -12.8701 -68.2917
rradius 23.978
rwrist 16.1048
rhand 7.90154 -3.56652
rfingers 7.12502
rthumb 33.1334 -30.5385
lclavicle 4.62174e-015 -1.70955e-014
lhumerus -20.9885 9.0745 79.078
lradius 24.8896
lwrist -8.90753
lhand -8.88873 39.39
lfingers 7.12502
lthumb 17.0535 68.6615
rfemur -34.9144 -1.24206 20.1549
rtibia 35.819
rfoot -9.09242 -2.86021
rtoes -5.28684
lfemur 8.44419 -1.27768 -21.5256
ltibia 29.0411
lfoot 1.70454 -12.3687
ltoes -30.4377
4
root 3.88453 17.9501 14.3032 -173.06 -2.48121 178.655
lowerback -2.6049 -1.16022 -6.5636
upperback -0.279639 -1.38 1.0733
thorax 1.35527 -0.733091 4.74301
lowerneck -22.0348 -7.01055 -12.1163
upperneck 23.5537 -7.95347 9.48503
head 12.3586 -3.28734 4.27119
rclavicle 1.09953e-015 -4.96962e-016
rhumerus -18.0914 -15.179 -67.3304
rradius 22.3886
rwrist 22.9509
rhand 8.39554 -2.87012
rfingers 7.12502
rthumb 33.603 -29.7411
lclavicle 1.09953e-015 -4.96962e-016
lhumerus -22.2751 10.5593 78.6791
lradius 23.6267
lwrist -10.0958
lhand -7.69478 40.9709
lfingers 7.12502
lthumb 18.2025 70.1392
rfemur -34.475 -1.01737 20.4166
rtibia 36.1878
rfoot -9.13218 -2.85002
rtoes -5.061
lfemur 7.05211 -1.44049 -21.2355
ltibia 31.7933
lfoot 5.36308 -12.8518
ltoes -24.1525
5
root 3.90533 17.9739 14.118 -173.055 -2.42174 179.153
lowerback -2.58035 -1.19186 -6.13839
upperback -0.0775885 -1.43092 1.35077
thorax 1.55414 -0.767106 4.78778
lowerneck -22.5294 -6.971 -12.1038
upperneck 23.4439 -7.79104 9.22033
head 12.3763 -3.2504 4.18331
rclavicle 3.10601e-016 5.96354e-016
rhumerus -19.8409 -17.5633 -66.2581
rradius 20.4794
rwrist 28.979
rhand 8.01483 -1.22221
rfingers 7.12502
rthumb 33.2411 -28.1712
lclavicle 3.10601e-016 5.96354e-016
lhumerus -23.1752 12.7051 78.187
lradius 22.1937
lwrist -11.7323
lhand -6.35019 41.8745
lfingers 7.12502
lthumb 19.4957 70.9171
rfemur -33.9919 -0.786199 21.074
rtibia 36.4507
rfoot -9.17309 -2.6055
rtoes -4.0021
lfemur 5.52031 -1.36464 -20.5377
ltibia 34.704
lfoot 8.40421 -13.2652
ltoes -20.6333
6
root 3.92256 17.9859 13.9453 -172.889 -2.47694 179.759
lowerback -2.51917 -1.23068 -5.44065
upperback 0.0141648 -1.50891 1.58138
thorax 1.61245 -0.805978 4.62961
lowerneck -22.9572 -6.97409 -12.0277
upperneck 23.3494 -7.71396 8.94805
head 12.3948 -3.24593 4.06789
rclavicle 2.07233e-014 -1.94809e-014
rhumerus -21.8835 -20.8439 -64.7466
rradius 18.465
rwrist 34.7044
rhand 6.98884 0.399253
rfingers 7.12502
rthumb 32.2651 -26.7532
lclavicle 2.07233e-014 -1.94809e-014
lhumerus -24.1902 14.6394 77.6231
lradius 20.8122
lwrist -13.0401
lhand -6.2564 42.2602
lfingers 7.12502
lthumb 19.5859 71.2937
rfemur -33.6642 -0.393877 21.7922
rtibia 36.5989
rfoot -9.21094 -2.74336
rtoes -3.25512
lfemur 3.68759 -1.2897 -19.6869
ltibia 37.6994
lfoot 10.6509 -13.955
ltoes -18.85
7
root 3.94291 18.0048 13.7692 -172.755 -2.70941 180.209
lowerback -2.41707 -1.27365 -4.9693
upperback 0.0809278 -1.58813 1.73254
thorax 1.62473 -0.845063 4.51777
lowerneck -23.3584 -6.97368 -11.7445
upperneck 23.3294 -7.70526 8.66677
head 12.4356 -3.25039 3.90522
rclavicle -1.57785e-015 -2.78299e-015
rhumerus -24.4753 -24.2785 -62.7544
rradius 16.9015
rwrist 40.0566
rhand 5.59758 2.07337
rfingers 7.12502
rthumb 30.9398 -25.3396
lclavicle -1.57785e-015 -2.78299e-015
lhumerus -25.3556 15.9743 76.9962
lradius 19.738
lwrist -14.171
lhand -6.34664 42.5244
lfingers 7.12502
lthumb 19.4991 71.5667
rfemur -33.2277 0.0307984 22.3359
rtibia 36.5953
rfoot -9.44328 -3.34684
rtoes -3.66769
lfemur 1.8394 -1.41727 -18.9536
ltibia 40.723
lfoot 13.0428 -14.411
ltoes -14.6609
8
root 3.96418 18.0213 13.5854 -172.851 -2.94206 180.922
lowerback -2.31739 -1.30544 -4.36169
upperback 0.300107 -1.66118 2.04443
thorax 1.79482 -0.889535 4.49437
lowerneck -23.768 -6.95875 -11.637
upperneck 23.1884 -7.66696 8.58635
head 12.4448 -3.23339 3.8528
rclavicle 4.21175e-015 -4.57205e-015
rhumerus -27.268 -27.3196 -60.3644
rradius 16.0779
rwrist 46.5536
rhand 9.3453 -0.619675
rfingers 7.12502
rthumb 34.5051 -27.2899
lclavicle 4.21175e-015 -4.57205e-015
lhumerus -26.5172 17.5618 76.2541
lradius 18.8395
lwrist -16.0743
lhand -5.03629 42.1646
lfingers 7.12502
lthumb 20.7585 71.0742
rfemur -32.345 0.395649 23.2084
rtibia 36.4879
rfoot -9.96693 -3.91079
rtoes -4.58415
lfemur 0.237978 -1.57254 -17.9404
ltibia 43.6909
lfoot 15.3238 -14.4038
ltoes -9.45291
9
root 3.98725 18.0237 13.4106 -172.95 -3.05564 181.76
lowerback -2.07228 -1.24053 -3.61325
upperback 0.314209 -1.61998 2.35572
thorax 1.65448 -0.865301 4.40064
lowerneck -23.4978 -6.89774 -11.6691
upperneck 22.853 -7.61324 8.67367
head 12.2597 -3.21077 3.89709
rclavicle 2.33572e-015 1.27222e-014
rhumerus -31.1586 -31.6138 -56.4175
rradius 14.784
rwrist 53.3347
rhand 10.1974 0.403154
rfingers 7.12502
rthumb 35.3136 -26.0791
lclavicle 2.33572e-015 1.27222e-014
lhumerus -28.0737 18.1823 75.65
lradius 18.3459
lwrist -17.4884
lhand -3.34183 42.3879
lfingers 7.12502
lthumb 22.3859 71.1108
rfemur -31.4373 0.834106 24.2303
rtibia 36.3631
rfoot -10.5202 -4.41027
rtoes -4.50215
lfemur -1.35514 -1.54824 -16.7934
ltibia 46.4724
lfoot 17.3215 -14.4711
ltoes -5.16186
10
root 4.00882 18.0282 13.242 -172.976 -3.04878 182.273
lowerback -1.79459 -1.13214 -3.16868
upperback 0.279507 -1.50618 2.56928
thorax 1.44486 -0.804616 4.38081
lowerneck -23.1485 -6.81597 -11.7682
upperneck 22.5258 -7.50755 8.74457
head 12.0601 -3.17437 3.9567
rclavicle 6.98231e-015 4.37326e-015
rhumerus -35.4054 -34.9353 -52.209
rradius 13.9805
rwrist 58.9164
rhand 5.67206 3.86434
rfingers 7.12502
rthumb 31.0108 -23.5351
lclavicle 6.98231e-015 4.37326e-015
lhumerus -29.5768 18.3186 75.2672
lradius 17.9981
lwrist -18.6035
lhand -1.88817 43.1705
lfingers 7.12502
lthumb 23.7807 71.7188
rfemur -30.7152 1.03689 24.9361
rtibia 36.2672
rfoot -10.9938 -4.63108
rtoes -3.70068
lfemur -2.92936 -1.36194 -16.0473
ltibia 49.0324
lfoot 19.368 -14.5495
ltoes -0.82114
